<svg width="118" height="40" viewBox="0 0 118 40" fill="none" xmlns="http://www.w3.org/2000/svg">
<path fill-rule="evenodd" clip-rule="evenodd" d="M64.4347 12.107C63.4061 18.7659 62.5585 24.2362 62.5512 24.2631C62.5387 24.3094 62.6343 24.3121 64.2752 24.3121C65.2307 24.3121 66.0125 24.3066 66.0125 24.2999C66.0125 24.2931 66.4468 21.3658 66.9775 17.7947C67.0427 17.3562 67.1035 16.9469 67.1603 16.5646C67.9106 11.5124 67.9583 11.1908 68.1191 10.9424C68.13 10.9255 68.1415 10.9089 68.1537 10.8913C68.1673 10.8716 68.1819 10.8506 68.1977 10.8261C68.4271 10.473 68.7126 10.2769 69.1462 10.175C69.34 10.1294 69.5627 10.1254 71.8624 10.1254C74.2177 10.1254 74.3776 10.1285 74.5355 10.177C74.6588 10.215 74.7339 10.2604 74.8183 10.3482C75.0824 10.6234 75.0865 10.9934 74.8451 12.7583C74.6375 14.2754 73.9569 19.2006 73.5705 21.9822C73.4008 23.2041 73.2619 24.2282 73.2619 24.258C73.2619 24.3109 73.3006 24.3121 74.9828 24.3121H76.7037L76.7176 24.2491C76.753 24.0897 77.8818 15.4077 78.2572 12.4081C78.727 8.65396 78.7699 8.18383 78.6779 7.79349C78.5258 7.14779 78.0161 6.66863 77.2645 6.4647L77.0266 6.40014H73.7658H70.5049L70.2984 6.46781C69.8661 6.60951 69.5472 6.88475 68.8619 7.70764C68.6356 7.97936 68.4391 8.20873 68.4251 8.21735C68.4111 8.22598 68.4045 8.20509 68.4103 8.17089C68.4162 8.13669 68.6854 6.32521 69.0087 4.14538C69.3319 1.96556 69.6038 0.141111 69.6129 0.0910304L69.6294 0H67.9672H66.305L64.4347 12.107ZM97.2678 15.1881C96.5621 20.137 95.9783 24.2144 95.9703 24.2491L95.9559 24.3121H97.6798H99.4037L99.4173 24.2491C99.4248 24.2144 99.8094 21.4636 100.272 18.1361C100.735 14.8085 101.139 11.9299 101.171 11.7391C101.275 11.1119 101.416 10.822 101.697 10.6522C101.779 10.6031 101.908 10.5496 101.984 10.5332C102.076 10.5134 103.028 10.5035 104.831 10.5035L105.117 10.5035C107.468 10.5033 107.71 10.5033 107.855 10.6218C107.871 10.6354 107.887 10.6505 107.904 10.6674C107.909 10.6732 107.916 10.6792 107.922 10.6854C108.071 10.8304 108.118 11.0612 108.053 11.3298C107.987 11.6053 107.616 14.3226 107.019 18.9063C106.53 22.6646 106.321 24.2965 106.329 24.3037C106.344 24.3187 109.741 24.4537 109.755 24.4398C109.763 24.4316 110.039 22.4679 110.367 20.076C110.695 17.6842 111.186 14.1202 111.457 12.1561L111.511 11.7643C111.923 8.78069 111.971 8.42749 111.903 8.09877C111.894 8.0545 111.882 8.01068 111.869 7.96094C111.865 7.94548 111.861 7.92946 111.857 7.91267C111.636 7.04754 110.996 6.39817 110.203 6.23457C110.014 6.19561 109.633 6.19007 107.148 6.19007H107.073C104.486 6.19006 104.155 6.19006 103.855 6.28728C103.811 6.30155 103.768 6.31791 103.718 6.33667L103.708 6.34045C103.147 6.55206 102.64 7.06816 101.954 8.12475C101.764 8.41765 101.728 8.45949 101.729 8.38877C101.73 8.34258 101.791 7.82895 101.864 7.24742L101.997 6.19007H100.274H98.5509L97.2678 15.1881ZM32.956 6.49139C32.956 6.50307 32.792 7.62087 32.5916 8.9754C31.4472 16.7094 30.7341 21.697 30.662 22.473C30.6162 22.9658 30.6907 23.4422 30.8546 23.7057C30.9541 23.8657 31.1756 24.0557 31.3666 24.1447C31.376 24.1491 31.3851 24.1534 31.394 24.1576C31.4226 24.1711 31.4487 24.1833 31.4752 24.1945C31.7495 24.3102 32.0726 24.3103 35.7323 24.3111L36.0699 24.3111C38.3137 24.3117 40.1495 24.3179 40.1495 24.3249C40.1495 24.3665 39.3606 28.6812 39.3245 28.8368C39.2715 29.0657 39.1888 29.2595 39.1055 29.35C39.0989 29.3573 39.0931 29.3641 39.0877 29.3706C39.0819 29.3775 39.0765 29.3839 39.0707 29.39C38.9718 29.4942 38.7632 29.4942 34.9938 29.4939C34.7833 29.4939 34.5617 29.4938 34.3285 29.4938C30.0278 29.4938 29.7931 29.4964 29.7931 29.5429C29.793 29.5698 29.7301 30.4679 29.6532 31.5385C29.5763 32.6092 29.5134 33.4949 29.5133 33.5068C29.5133 33.5187 32.0103 33.5245 35.0623 33.5198C35.4817 33.5192 35.8705 33.5186 36.231 33.5182C40.4802 33.5124 40.8008 33.5119 41.0643 33.389C41.0858 33.379 41.1069 33.3682 41.1298 33.3565C41.1535 33.3443 41.1792 33.3311 41.209 33.3169C41.6214 33.121 41.9286 32.6913 42.0899 32.0847C42.1599 31.8217 42.7404 28.8323 45.4348 14.859L47.0497 6.48416L45.1906 6.47696C44.1681 6.47299 43.3283 6.47299 43.3243 6.47696C43.3166 6.48469 40.7373 20.2257 40.7373 20.2589C40.7373 20.2917 34.7763 20.2826 34.6576 20.2496C34.5084 20.2081 34.3937 20.0814 34.3609 19.9219L34.36 19.9173C34.3558 19.8972 34.3523 19.8799 34.3497 19.8624C34.3341 19.7576 34.3532 19.6477 34.4868 18.8785L34.4917 18.8503C34.5546 18.4883 34.7001 17.5934 34.8152 16.8616C35.188 14.4909 36.3988 6.56945 36.3988 6.50105C36.3988 6.47887 35.9133 6.47016 34.6774 6.47016C33.7307 6.47016 32.956 6.47971 32.956 6.49139ZM46.6883 19.6135C45.5354 26.8424 44.5644 32.9303 44.5305 33.1423L44.4689 33.5276L46.1928 33.5204L47.9167 33.5132L49.7836 22.0294C50.8104 15.7132 51.6511 10.5361 51.652 10.5245C51.6528 10.5129 52.9986 10.5035 54.6426 10.5035L54.9402 10.5035C57.5443 10.5033 57.8097 10.5033 58.0073 10.6191C58.0297 10.6323 58.0513 10.6469 58.0753 10.6632C58.0831 10.6685 58.0911 10.6739 58.0995 10.6796C58.3436 10.8432 58.4772 11.1358 58.4482 11.4428C58.441 11.5193 58.3961 11.8026 58.3485 12.0725C58.2298 12.7458 57.8199 15.5999 57.3906 18.7428C57.2651 19.6612 57.1027 19.9997 56.6959 20.1906L56.5378 20.2648L54.2435 20.2788L51.9492 20.2928L51.6776 22.1974C51.5282 23.245 51.3985 24.1496 51.3894 24.2077L51.3727 24.3134L54.795 24.3058L58.2172 24.2981L58.4363 24.2206C59.3389 23.901 59.8301 23.0014 60.2443 20.909C60.4754 19.7419 60.7589 17.6042 61.4925 11.4978C61.6554 10.1422 61.8069 8.91019 61.8293 8.76012C61.9102 8.21677 61.874 7.9253 61.6755 7.52051C61.4893 7.14104 61.1567 6.7877 60.8294 6.62175C60.8128 6.61333 60.7981 6.60538 60.7842 6.59787C60.7708 6.59062 60.7581 6.58377 60.7452 6.57732C60.5308 6.46972 60.2624 6.46974 55.5166 6.47011C55.2219 6.47013 54.9099 6.47016 54.5796 6.47016H48.7845L46.6883 19.6135ZM81.715 6.50035C81.715 6.51693 81.5202 7.93177 81.2821 9.6444C79.8644 19.843 79.5594 22.1406 79.5602 22.6152C79.5617 23.4887 79.9693 24.0636 80.724 24.2568C80.9335 24.3104 81.0451 24.3121 84.3155 24.3117L84.7117 24.3117C87.5614 24.3115 87.8547 24.3115 88.0984 24.2016C88.1371 24.1841 88.1747 24.1638 88.2211 24.1403C88.6036 23.9463 88.9377 23.6064 89.546 22.7922C89.7389 22.534 89.9011 22.3271 89.9064 22.3324C89.9117 22.3377 89.8531 22.7812 89.7761 23.3179C89.6992 23.8546 89.6362 24.2978 89.6362 24.3029C89.6362 24.308 90.4103 24.3121 91.3563 24.3121H93.0765L93.0926 24.2211C93.1306 24.007 95.6541 6.57161 95.6541 6.52338C95.6541 6.47167 95.6055 6.47016 93.9391 6.47016H92.2241L91.2364 12.6812C90.6931 16.0973 90.2241 19.0562 90.1941 19.2564C90.0988 19.8914 90.0077 20.0931 89.7537 20.2312C89.5191 20.3587 88.9712 20.3764 86.5013 20.3364C84.1324 20.2981 83.7883 20.2815 83.6242 20.1978C83.3015 20.033 83.2517 19.7054 83.3813 18.5982C83.557 17.0979 84.2796 11.7519 84.8925 7.41878C84.9614 6.9315 85.0178 6.5187 85.0178 6.50147C85.0178 6.47876 84.5651 6.47016 83.3664 6.47016C82.2048 6.47016 81.715 6.47912 81.715 6.50035ZM51.6385 29.4928C51.4289 29.5615 51.2544 29.7078 51.1571 29.8961C51.096 30.0143 51.0828 30.0776 51.0827 30.2501C51.0826 30.5933 51.1871 30.7368 51.6395 31.0147C51.7781 31.0998 51.9192 31.1991 51.953 31.2353C52.2245 31.5255 52.0637 31.9594 51.6423 32.074C51.4829 32.1173 51.1132 32.0889 50.9127 32.0178C50.8209 31.9853 50.7415 31.9587 50.7364 31.9587C50.7312 31.9587 50.7308 32.0299 50.7354 32.117C50.7437 32.2738 50.7449 32.2758 50.8558 32.3163C51.0134 32.3739 51.5378 32.3947 51.7337 32.3512C52.2288 32.2411 52.4973 31.8687 52.4257 31.391C52.3922 31.1673 52.2896 31.051 51.8969 30.7915C51.4709 30.5099 51.4225 30.4485 51.436 30.2069C51.4515 29.9291 51.6125 29.7716 51.9223 29.731C52.069 29.7117 52.3775 29.7696 52.5192 29.8429L52.599 29.8842L52.6581 29.7469C52.6906 29.6713 52.7171 29.6035 52.7171 29.5962C52.7171 29.589 52.6384 29.5554 52.5422 29.5216C52.2874 29.4321 51.8648 29.4187 51.6385 29.4928ZM64.6441 29.4821C63.9956 29.6566 63.5302 30.3152 63.4746 31.1372C63.4352 31.7188 63.6185 32.0915 64.0392 32.2851C64.3141 32.4117 64.8132 32.4103 65.2441 32.2818L65.3827 32.2404L65.5209 31.5884C65.5968 31.2298 65.6644 30.9143 65.6711 30.8873C65.6822 30.8422 65.6477 30.8383 65.2343 30.8383H64.7856L64.7552 30.9797C64.7386 31.0575 64.7249 31.1268 64.7249 31.1338C64.7249 31.1407 64.8523 31.1464 65.0081 31.1464C65.2639 31.1464 65.29 31.1511 65.2787 31.1954C65.2718 31.2224 65.2294 31.4178 65.1845 31.6297L65.1028 32.0149L65.0048 32.049C64.9509 32.0678 64.7806 32.0835 64.6263 32.0839C64.3795 32.0846 64.329 32.0761 64.2067 32.0131C64.045 31.9299 63.9002 31.7543 63.855 31.5864C63.8375 31.5215 63.8242 31.3586 63.8254 31.2242C63.8313 30.5752 64.1111 30.0544 64.5771 29.8249C64.7508 29.7393 64.7859 29.7321 65.0183 29.7348C65.2078 29.737 65.3254 29.7556 65.49 29.8096L65.7093 29.8815L65.7623 29.7647C65.7915 29.7005 65.8156 29.6325 65.8159 29.6137C65.8166 29.5775 65.6239 29.5135 65.3719 29.4662C65.1612 29.4266 64.8229 29.434 64.6441 29.4821ZM72.4759 29.4875C71.8461 29.6579 71.3923 30.2968 71.3175 31.1184C71.2955 31.3591 71.3362 31.6618 71.4142 31.8383C71.4905 32.011 71.7004 32.2221 71.8704 32.2972C72.073 32.3866 72.5211 32.4031 72.8001 32.3312L72.996 32.2808L73.0046 32.1301C73.0123 31.9944 73.0082 31.9814 72.9626 31.9995C72.8209 32.0556 72.5019 32.1026 72.3383 32.0915C71.9129 32.0625 71.695 31.8112 71.6721 31.3234C71.6482 30.8158 71.8317 30.3043 72.1402 30.0185C72.3674 29.808 72.555 29.7355 72.8701 29.7366C73.045 29.7372 73.1483 29.7532 73.2603 29.797C73.344 29.8298 73.4149 29.8538 73.4178 29.8503C73.4314 29.8338 73.5418 29.6065 73.5418 29.595C73.5418 29.5878 73.4694 29.5541 73.3809 29.5202C73.1566 29.4342 72.7297 29.4188 72.4759 29.4875ZM80.3435 29.4744C80.1207 29.5378 79.9426 29.6439 79.77 29.8159C79.2787 30.3059 79.0841 31.29 79.3647 31.8652C79.4623 32.0653 79.5919 32.1894 79.8104 32.2919C79.9507 32.3578 79.9981 32.3648 80.303 32.3648C80.6358 32.3648 80.6432 32.3634 80.8505 32.2609C81.3434 32.017 81.6465 31.4804 81.7014 30.7543C81.747 30.1506 81.5481 29.7197 81.131 29.5184C80.9721 29.4418 80.5424 29.4178 80.3435 29.4744ZM85.0911 29.469C84.6527 29.572 84.2541 29.9943 84.0762 30.5442C83.947 30.9437 83.9523 31.5926 84.0869 31.8606C84.1773 32.0406 84.3196 32.18 84.5073 32.2724C84.688 32.3614 84.7073 32.3648 85.0313 32.3648C85.3608 32.3648 85.372 32.3627 85.5776 32.2632C85.9304 32.0923 86.175 31.7972 86.315 31.3735C86.6138 30.4689 86.3791 29.6624 85.7639 29.4796C85.6106 29.434 85.2632 29.4286 85.0911 29.469ZM88.0437 29.4822C87.8113 29.5447 87.6244 29.6578 87.4233 29.8576C87.119 30.1598 86.951 30.5333 86.8913 31.0405C86.8173 31.6682 87.0015 32.0807 87.4496 32.291C87.5943 32.3589 87.6361 32.3648 87.9708 32.3648C88.3087 32.3648 88.65 32.3126 88.7592 32.2443C88.7859 32.2275 89.0766 30.9714 89.0765 30.8733C89.0764 30.8468 88.9689 30.8383 88.6321 30.8383H88.1879L88.1704 30.9479C88.1607 31.0081 88.1452 31.0775 88.1358 31.1019C88.1209 31.1408 88.155 31.1464 88.4041 31.1464H88.6895L88.6711 31.255C88.6611 31.3146 88.6189 31.5131 88.5775 31.6959L88.5023 32.0284L88.3625 32.0608C88.0429 32.1351 87.6868 32.0892 87.5048 31.9503C87.4505 31.9088 87.3699 31.8086 87.3257 31.7277C87.2581 31.6037 87.2436 31.5405 87.2341 31.3266C87.2111 30.8086 87.3908 30.3075 87.7037 30.0176C88.0384 29.7075 88.4392 29.6484 88.9625 29.832C89.046 29.8613 89.1156 29.8823 89.117 29.8786C89.1184 29.875 89.1477 29.8115 89.1822 29.7376L89.2449 29.6032L89.1415 29.56C88.8563 29.4408 88.3348 29.4038 88.0437 29.4822ZM93.4822 29.4827C93.2706 29.5478 93.081 29.7042 92.9844 29.8932C92.9176 30.0238 92.903 30.0872 92.9035 30.2425C92.9049 30.5937 93.0145 30.7435 93.4775 31.0266C93.8568 31.2586 93.9603 31.4199 93.8923 31.6728C93.8531 31.8181 93.7486 31.9435 93.6003 32.0229C93.437 32.1103 92.9745 32.1084 92.7317 32.0193C92.6408 31.986 92.5615 31.9587 92.5554 31.9587C92.5493 31.9587 92.5482 32.0299 92.5528 32.117C92.5611 32.2738 92.5623 32.2758 92.6731 32.3163C92.8309 32.3739 93.3552 32.3947 93.5511 32.3512C94.006 32.25 94.2546 31.958 94.2546 31.525C94.2546 31.3957 94.2364 31.3169 94.1806 31.2049C94.102 31.0471 93.9884 30.9516 93.5717 30.6929C93.3257 30.5402 93.2469 30.4326 93.2477 30.2501C93.2493 29.8572 93.5973 29.6478 94.0668 29.7573C94.1713 29.7817 94.292 29.8198 94.3349 29.8421C94.4124 29.8822 94.4136 29.8815 94.4738 29.7574C94.5072 29.6887 94.5345 29.6213 94.5345 29.6077C94.5345 29.5941 94.4558 29.5554 94.3596 29.5216C94.1269 29.4399 93.685 29.4203 93.4822 29.4827ZM53.4333 29.5429C53.4245 29.5852 53.2912 30.2175 53.1372 30.9479C52.9831 31.6783 52.8571 32.2928 52.8571 32.3134C52.8571 32.3436 52.9935 32.3508 53.5675 32.3508H54.2779L54.3092 32.2263C54.3265 32.1579 54.3406 32.0886 54.3406 32.0723C54.3406 32.0525 54.1596 32.0427 53.7947 32.0427C53.293 32.0427 53.2491 32.0387 53.2505 31.9937C53.2514 31.9667 53.2989 31.7304 53.356 31.4685L53.4598 30.9923L53.9805 30.9847L54.5013 30.9771L54.5289 30.8377L54.5564 30.6982H54.0426C53.76 30.6982 53.5288 30.6888 53.5287 30.6772C53.5286 30.6657 53.5695 30.4577 53.6196 30.2151L53.7106 29.7739H54.2618C54.565 29.7739 54.8189 29.7645 54.826 29.7529C54.8331 29.7414 54.8479 29.672 54.8588 29.5989L54.8787 29.4658H54.164H53.4493L53.4333 29.5429ZM55.5055 29.5148C55.4975 29.5418 55.364 30.1689 55.2087 30.9083C55.0534 31.6478 54.9197 32.2748 54.9115 32.3018C54.8984 32.3447 54.9177 32.3508 55.0664 32.3508C55.1598 32.3508 55.2362 32.3443 55.2362 32.3365C55.2362 32.3227 55.4442 31.339 55.4745 31.2094C55.4884 31.1499 55.503 31.1464 55.7375 31.1464H55.9857L56.1536 31.6296C56.2459 31.8953 56.3375 32.1663 56.3571 32.2318L56.3927 32.3508H56.5721C56.7453 32.3508 56.7508 32.3486 56.7319 32.2878C56.7212 32.2531 56.6195 31.9742 56.5061 31.668C56.3927 31.3618 56.2999 31.1028 56.2999 31.0924C56.2999 31.0819 56.3597 31.0516 56.4328 31.025C56.6566 30.9434 56.815 30.8069 56.9124 30.6118C56.9888 30.4588 56.9996 30.4087 56.9996 30.2068C56.9996 30.0098 56.9885 29.9551 56.9227 29.8294C56.7811 29.5589 56.5108 29.4664 55.8609 29.4661C55.5602 29.4659 55.5182 29.4716 55.5055 29.5148ZM57.4156 29.4791C57.4061 29.4886 57.7079 32.2845 57.725 32.3451C57.7263 32.3497 57.8045 32.3497 57.8987 32.3451L58.0701 32.3368L58.8119 30.9503C59.2199 30.1878 59.5599 29.5418 59.5675 29.5148C59.5795 29.472 59.5597 29.4658 59.4115 29.4658H59.2418L58.9609 30.005C58.8065 30.3016 58.5192 30.8624 58.3227 31.2513L57.9653 31.9584L57.9449 31.6605C57.9338 31.4966 57.8802 30.944 57.826 30.4325C57.7718 29.921 57.7274 29.4942 57.7274 29.4841C57.7274 29.4634 57.436 29.4587 57.4156 29.4791ZM60.012 29.5148C60.0042 29.5418 59.8702 30.1689 59.7144 30.9083C59.5585 31.6478 59.4247 32.2748 59.417 32.3018C59.4048 32.3445 59.4242 32.3508 59.5673 32.3508H59.7316L60.0321 30.9293C60.1974 30.1475 60.3321 29.4984 60.3315 29.4868C60.3309 29.4753 60.262 29.4658 60.1784 29.4658C60.0577 29.4658 60.0234 29.4759 60.012 29.5148ZM61.101 29.5275C61.0928 29.5629 60.972 30.1339 60.8326 30.7963C60.6931 31.4587 60.5623 32.08 60.5419 32.1771L60.5047 32.3534L60.6623 32.3451L60.8198 32.3368L60.9937 31.5245C61.0893 31.0778 61.1948 30.5547 61.2283 30.3621C61.2618 30.1696 61.2947 29.9931 61.3016 29.97C61.3085 29.9469 61.5183 30.47 61.7679 31.1324L62.2218 32.3368L62.3935 32.3451C62.5385 32.3521 62.5675 32.3456 62.5806 32.3031C62.5892 32.2754 62.7221 31.6541 62.8762 30.9223C63.0302 30.1906 63.1632 29.5629 63.1717 29.5274C63.1867 29.4652 63.1818 29.4633 63.026 29.4714L62.8647 29.4798L62.6757 30.3621C62.5717 30.8474 62.4663 31.3705 62.4415 31.5245C62.4166 31.6786 62.3903 31.8235 62.383 31.8466C62.3757 31.8697 62.1658 31.3467 61.9166 30.6842L61.4634 29.4798L61.2897 29.4715C61.1282 29.4638 61.1149 29.4678 61.101 29.5275ZM67.3744 29.4868C67.3672 29.4984 67.3525 29.5677 67.3416 29.6409L67.3217 29.7739H67.7172H68.1128L68.0975 29.837C68.0492 30.0363 67.5799 32.2831 67.5799 32.3151C67.5799 32.3442 67.6188 32.3516 67.7398 32.3452L67.8996 32.3368L68.1583 31.1184C68.3006 30.4483 68.4242 29.8717 68.4329 29.837C68.4483 29.7753 68.4571 29.7739 68.8503 29.7739H69.252L69.2694 29.6689C69.2724 29.6502 69.2759 29.6333 69.2791 29.6178C69.2878 29.5753 69.2941 29.5445 69.2831 29.5223C69.2545 29.4644 69.1082 29.4646 68.5803 29.4656C68.5069 29.4657 68.4261 29.4658 68.3373 29.4658C67.8148 29.4658 67.3815 29.4753 67.3744 29.4868ZM69.7241 29.5148C69.7159 29.5418 69.5821 30.1689 69.4268 30.9083C69.2715 31.6478 69.138 32.2748 69.1301 32.3018C69.1166 32.3476 69.1634 32.3508 69.8417 32.3508H70.5677L70.5852 32.2412C70.5949 32.1809 70.6104 32.1116 70.6198 32.0871C70.635 32.0475 70.5764 32.0427 70.0722 32.0427C69.5474 32.0427 69.5085 32.0392 69.5224 31.9937C69.5305 31.9667 69.5811 31.7397 69.6347 31.4893C69.6883 31.2389 69.7398 31.0215 69.7493 31.0061C69.7597 30.9894 69.971 30.9783 70.2826 30.9783C70.7687 30.9783 70.7988 30.9753 70.7988 30.9258C70.7988 30.8969 70.8067 30.8339 70.8163 30.7858L70.8338 30.6982H70.3154H69.797L69.8613 30.3971C69.8967 30.2315 69.9404 30.0236 69.9584 29.935L69.9911 29.7739H70.5455H71.1001L71.1314 29.6495C71.1486 29.5811 71.1627 29.5117 71.1627 29.4954C71.1627 29.4754 70.9324 29.4658 70.4508 29.4658C69.7972 29.4658 69.7377 29.4698 69.7241 29.5148ZM74.1444 29.5008C74.138 29.5201 74.0052 30.1472 73.8493 30.8943C73.6934 31.6415 73.5595 32.2748 73.5519 32.3018C73.5399 32.3445 73.5593 32.3508 73.7035 32.3508H73.8688L74.0013 31.7136C74.0742 31.3631 74.14 31.0543 74.1476 31.0274C74.1602 30.9825 74.2159 30.9783 74.8033 30.9783C75.4069 30.9783 75.4452 30.9814 75.4452 31.0297C75.4452 31.0579 75.3885 31.3499 75.3192 31.6786C75.2499 32.0073 75.1933 32.293 75.1933 32.3135C75.1933 32.34 75.2377 32.3508 75.3472 32.3508C75.4319 32.3508 75.5014 32.3477 75.5018 32.3438C75.5021 32.3399 75.6384 31.6969 75.8045 30.9148C75.9707 30.1328 76.1006 29.4868 76.0931 29.4794C76.0857 29.4719 76.0143 29.4658 75.9344 29.4658H75.7892L75.6981 29.893C75.648 30.1279 75.5881 30.4052 75.5651 30.5092L75.5231 30.6982H74.8717H74.2202L74.3284 30.1871C74.3878 29.9059 74.4446 29.6286 74.4546 29.5709L74.4727 29.4658H74.3143C74.2123 29.4658 74.1518 29.4783 74.1444 29.5008ZM76.888 29.4917C76.872 29.5176 76.2849 32.2751 76.2849 32.3244C76.2849 32.3389 76.3542 32.3508 76.4388 32.3508C76.5235 32.3508 76.5928 32.3426 76.5928 32.3325C76.5928 32.3224 76.6802 31.9033 76.7872 31.4012C76.8941 30.899 77.002 30.3686 77.0271 30.2224C77.0521 30.0762 77.0763 29.953 77.0808 29.9485C77.0852 29.944 77.2435 30.3535 77.4325 30.8585C77.6214 31.3635 77.8257 31.9058 77.8863 32.0637L77.9964 32.3508H78.17H78.3435L78.6345 30.9713C78.7946 30.2126 78.9312 29.5635 78.938 29.5289C78.9497 29.4695 78.9413 29.4658 78.7938 29.4658C78.6543 29.4658 78.6355 29.4727 78.6224 29.5289C78.5392 29.886 78.2131 31.4657 78.1858 31.6442C78.1663 31.7717 78.142 31.8662 78.1317 31.8543C78.1215 31.8424 77.9134 31.3001 77.6693 30.6492L77.2255 29.4658H77.0647C76.9763 29.4658 76.8968 29.4775 76.888 29.4917ZM82.6267 29.4906C82.6112 29.5156 82.0229 32.2774 82.0229 32.325C82.0229 32.3401 82.3188 32.3508 82.7347 32.3508C82.7989 32.3508 82.8575 32.3509 82.9108 32.351C83.3015 32.3519 83.4157 32.3521 83.4573 32.2973C83.4745 32.2746 83.4793 32.2425 83.4861 32.1972C83.4883 32.1822 83.4908 32.1657 83.494 32.1477L83.5126 32.0427H82.9637C82.6618 32.0427 82.4147 32.032 82.4147 32.0189C82.4147 32.0059 82.5344 31.4301 82.6806 30.7395C82.8269 30.0489 82.9465 29.4798 82.9465 29.4749C82.9465 29.4533 82.6405 29.4683 82.6267 29.4906ZM90.0575 29.6129C90.0407 29.6938 89.9034 30.3397 89.7523 31.0484L89.4777 32.3368L89.6301 32.3453C89.7139 32.35 89.787 32.3493 89.7924 32.3438C89.8074 32.3288 90.3917 29.5712 90.3918 29.5148C90.3919 29.4742 90.3661 29.4658 90.24 29.4658H90.088L90.0575 29.6129ZM91.1917 29.4906C91.1762 29.5156 90.5879 32.2774 90.5879 32.325C90.5879 32.3401 90.8838 32.3508 91.2998 32.3508C91.3639 32.3508 91.4225 32.3509 91.4758 32.351C91.8665 32.3519 91.9807 32.3521 92.0223 32.2973C92.0395 32.2746 92.0443 32.2425 92.0511 32.1972C92.0533 32.1822 92.0558 32.1657 92.059 32.1477L92.0776 32.0427H91.5286C91.1073 32.0427 90.9801 32.0346 90.9815 32.0077C90.9824 31.9884 91.0305 31.7521 91.0883 31.4825L91.1934 30.9923L91.7143 30.9847L92.2351 30.9771L92.2533 30.8867C92.2633 30.837 92.2777 30.7742 92.2853 30.7473C92.298 30.7018 92.2608 30.6982 91.7781 30.6982H91.2571L91.2743 30.6072C91.2837 30.5572 91.326 30.3523 91.3683 30.1521L91.4453 29.7879L92.0048 29.7804L92.5643 29.7728L92.5929 29.6332C92.6087 29.5564 92.6153 29.4873 92.6077 29.4797C92.5827 29.4547 91.2073 29.4652 91.1917 29.4906ZM96.314 29.4971C96.3069 29.5184 96.1735 30.1472 96.0176 30.8943C95.8616 31.6415 95.7278 32.2748 95.7202 32.3018C95.7073 32.3472 95.7441 32.3508 96.219 32.3506C96.8052 32.3505 96.9927 32.3267 97.2165 32.2244C97.4905 32.0991 97.6434 31.9077 97.6975 31.6221C97.7557 31.3147 97.6357 31.0564 97.3739 30.9257L97.2372 30.8575L97.378 30.8115C97.7145 30.7018 97.8933 30.4666 97.8933 30.1337C97.8933 29.8347 97.7697 29.6485 97.5033 29.5463C97.3716 29.4958 97.2685 29.4844 96.8372 29.4725C96.4187 29.4609 96.3246 29.4654 96.314 29.4971ZM98.7192 29.5289C98.711 29.5635 98.5786 30.1906 98.4249 30.9223C98.2712 31.6541 98.1404 32.2748 98.134 32.3018C98.1233 32.3475 98.1711 32.3508 98.8445 32.3508H99.5665L99.5851 32.2458C99.5953 32.188 99.6102 32.1187 99.6181 32.0917C99.6315 32.0462 99.5928 32.0427 99.0748 32.0427H98.5171L98.5982 31.6576C98.6428 31.4458 98.6945 31.2094 98.7132 31.1324L98.747 30.9923L99.2683 30.9847L99.7895 30.9771L99.8068 30.8727C99.8163 30.8153 99.8242 30.7525 99.8243 30.7333C99.8246 30.7065 99.7054 30.6982 99.3208 30.6982C98.9367 30.6982 98.8169 30.6899 98.8165 30.6632C98.8163 30.644 98.856 30.436 98.9047 30.2011L98.9932 29.7739H99.547C99.5936 29.7739 99.6364 29.774 99.6756 29.7741C99.9706 29.7748 100.068 29.7751 100.107 29.7275C100.127 29.7041 100.132 29.6692 100.141 29.6171C100.143 29.603 100.145 29.5876 100.148 29.5709L100.167 29.4658H99.4504H98.7341L98.7192 29.5289ZM100.431 29.5466C100.422 29.591 100.407 29.6603 100.397 29.7006L100.378 29.7739H100.773C101.025 29.7739 101.168 29.7844 101.168 29.8028C101.168 29.8265 100.698 32.082 100.65 32.2878C100.636 32.3477 100.643 32.3508 100.801 32.3508C100.949 32.3508 100.968 32.3444 100.981 32.2878C100.989 32.2531 101.113 31.6733 101.255 30.9993L101.515 29.7739H101.913C101.943 29.7739 101.97 29.774 101.995 29.7741C102.199 29.7746 102.277 29.7748 102.313 29.7361C102.336 29.7122 102.342 29.6737 102.352 29.6113C102.355 29.5988 102.357 29.5854 102.359 29.5709L102.378 29.4658H101.413H100.447L100.431 29.5466ZM102.529 29.5148C102.521 29.5418 102.506 29.6111 102.496 29.6689L102.477 29.7739H102.872C103.09 29.7739 103.267 29.778 103.267 29.783C103.267 29.7879 103.148 30.357 103.002 31.0476C102.855 31.7382 102.736 32.314 102.736 32.327C102.736 32.3401 102.808 32.3508 102.897 32.3508H103.058L103.305 31.1814C103.441 30.5382 103.565 29.9585 103.581 29.893L103.61 29.7739H104.009H104.409L104.427 29.6689C104.438 29.6111 104.452 29.5418 104.46 29.5148C104.474 29.4688 104.416 29.4658 103.509 29.4658C102.614 29.4658 102.542 29.4694 102.529 29.5148ZM104.881 29.5289C104.872 29.5635 104.744 30.1654 104.597 30.8663C104.449 31.5672 104.317 32.188 104.305 32.2458L104.281 32.3508H105.002H105.724L105.74 32.27C105.749 32.2256 105.764 32.1563 105.774 32.116L105.793 32.0427H105.235H104.677L104.781 31.5514C104.839 31.2812 104.893 31.0417 104.901 31.0192C104.914 30.9854 105.006 30.9783 105.432 30.9783H105.947L105.965 30.8733C105.974 30.8155 105.982 30.7525 105.982 30.7333C105.982 30.7065 105.863 30.6982 105.479 30.6982C105.097 30.6982 104.975 30.6898 104.975 30.6636C104.975 30.6445 105.015 30.4365 105.064 30.2014L105.153 29.7739H105.706H106.26L106.289 29.6689C106.293 29.6542 106.297 29.6406 106.301 29.628C106.316 29.5759 106.327 29.5405 106.315 29.5164C106.289 29.4649 106.16 29.4651 105.756 29.4657C105.71 29.4658 105.661 29.4658 105.608 29.4658H104.897L104.881 29.5289ZM106.949 29.5008C106.942 29.5201 106.811 30.1409 106.656 30.8803C106.501 31.6197 106.368 32.2531 106.36 32.2878C106.346 32.3476 106.354 32.3508 106.509 32.3508H106.674L106.799 31.7556L106.925 31.1604L107.178 31.1524L107.43 31.1444L107.636 31.7476L107.841 32.3508H108.02C108.152 32.3508 108.196 32.3415 108.186 32.3158C108.063 31.9904 107.746 31.1134 107.746 31.096C107.746 31.0832 107.818 31.0427 107.906 31.0061C108.095 30.9277 108.287 30.7598 108.369 30.6015C108.44 30.4636 108.466 30.1214 108.42 29.9486C108.353 29.7028 108.137 29.5418 107.81 29.4945C107.526 29.4533 106.963 29.4575 106.949 29.5008ZM80.4085 29.7582C79.923 29.9101 79.5877 30.509 79.5877 31.2241C79.5877 31.6104 79.7196 31.8939 79.9582 32.0205C80.1335 32.1134 80.4712 32.1113 80.6654 32.016C80.9412 31.8806 81.1721 31.5603 81.2829 31.1594C81.3082 31.0675 81.3355 30.8517 81.3435 30.6798C81.3612 30.2968 81.3144 30.1157 81.1492 29.9278C80.9811 29.7368 80.6901 29.6701 80.4085 29.7582ZM85.1107 29.7699C84.6156 29.9411 84.2768 30.6239 84.3261 31.351C84.3602 31.8525 84.6557 32.1312 85.1104 32.0903C85.5515 32.0507 85.874 31.704 86.0253 31.1069C86.095 30.8318 86.1007 30.4092 86.0376 30.1965C85.9232 29.811 85.5237 29.6271 85.1107 29.7699ZM55.7867 29.7664C55.7771 29.7819 55.7242 30.0136 55.6691 30.2814C55.6139 30.5492 55.5619 30.7919 55.5535 30.8208C55.5389 30.8707 55.5555 30.8728 55.87 30.8608C56.161 30.8498 56.22 30.8389 56.3487 30.7728C56.5603 30.6642 56.6462 30.5234 56.6593 30.2638C56.6722 30.0069 56.6235 29.9022 56.4569 29.8284C56.3195 29.7676 55.8148 29.7209 55.7867 29.7664ZM96.5928 29.777C96.5849 29.7984 96.5366 30.0113 96.4854 30.2501L96.3924 30.6842L96.7271 30.6921C97.1364 30.7018 97.284 30.6618 97.4282 30.5022C97.6344 30.2737 97.5879 29.9152 97.3383 29.8099C97.1934 29.7488 96.6125 29.7232 96.5928 29.777ZM107.217 29.8052C107.201 29.8419 107.15 30.0673 107.102 30.3061C107.054 30.5449 107.008 30.77 106.999 30.8064L106.982 30.8726L107.301 30.8623C107.58 30.8533 107.639 30.8425 107.777 30.7748C107.997 30.6672 108.085 30.5339 108.103 30.2827C108.13 29.9103 107.997 29.7921 107.516 29.7578C107.248 29.7387 107.244 29.7393 107.217 29.8052ZM96.3259 30.9859C96.3259 30.9937 96.2755 31.2346 96.2139 31.5211C96.1523 31.8076 96.1019 32.0485 96.1019 32.0564C96.1019 32.0924 96.7996 32.0683 96.937 32.0275C97.2254 31.9418 97.3806 31.7136 97.3556 31.412C97.3296 31.0975 97.1734 30.9998 96.6696 30.983C96.4805 30.9767 96.3259 30.978 96.3259 30.9859ZM13.7449 24.4215C13.7449 24.3839 17.1582 0.445807 17.1856 0.291327L17.2018 0.199977H18.9277C19.877 0.199977 20.6537 0.20335 20.6537 0.207454C20.6537 0.211558 20.3314 2.47225 19.9375 5.23124C19.5436 7.99022 19.2214 10.2636 19.2214 10.2832C19.2214 10.3119 19.9002 10.3175 22.6827 10.3118L26.1441 10.3047L26.8653 5.2734C27.262 2.50621 27.5874 0.232639 27.5885 0.221058C27.5904 0.201242 31.0448 0.189381 31.0448 0.209197C31.0448 0.214256 30.2676 5.66055 29.3176 12.3121C28.3677 18.9636 27.5905 24.4172 27.5905 24.4313C27.5905 24.4463 26.8806 24.4568 25.8633 24.4568H24.1361L24.137 24.3936C24.1375 24.3588 24.3947 22.0916 24.7086 19.3553C25.0225 16.619 25.2741 14.3708 25.2677 14.3592C25.2505 14.3278 18.6316 14.3328 18.6316 14.3642C18.6316 14.3786 18.3093 16.6388 17.9154 19.387C17.5216 22.1351 17.1993 24.4001 17.1993 24.4202C17.1993 24.4499 16.872 24.4568 15.4721 24.4568C14.1043 24.4568 13.7449 24.4495 13.7449 24.4215ZM12.3467 6.96517C-3.15842 8.35821 -7.53139 32.3383 19.9005 40C0.121521 32.1393 -2.08955 13.7313 12.3467 6.96517ZM114.219 4.0777V1.48344H115.469C115.601 1.48344 115.728 1.51508 115.85 1.57835C115.975 1.63928 116.077 1.73068 116.157 1.85254C116.24 1.97206 116.281 2.1197 116.281 2.29546C116.281 2.47123 116.238 2.62355 116.154 2.75245C116.071 2.879 115.965 2.97625 115.836 3.04421L115.831 3.04671L116.387 4.0777H115.878L115.39 3.14616H114.674V4.0777H114.219ZM115.32 2.79112H114.674V1.83848H115.331C115.444 1.83848 115.548 1.87363 115.642 1.94394C115.738 2.01424 115.786 2.13142 115.786 2.29546C115.786 2.45482 115.738 2.57786 115.642 2.66457C115.548 2.74893 115.44 2.79112 115.32 2.79112ZM115.176 5.62441C114.785 5.62441 114.419 5.55176 114.078 5.40647C113.736 5.26117 113.436 5.05963 113.177 4.80184C112.919 4.54406 112.716 4.24526 112.57 3.90545C112.424 3.56564 112.351 3.20123 112.351 2.81221C112.351 2.42318 112.424 2.05877 112.57 1.71896C112.716 1.37915 112.919 1.08036 113.177 0.82257C113.436 0.564785 113.736 0.363244 114.078 0.217946C114.419 0.072649 114.785 0 115.176 0C115.566 0 115.932 0.072649 116.274 0.217946C116.615 0.363244 116.915 0.564785 117.174 0.82257C117.433 1.08036 117.635 1.37915 117.781 1.71896C117.927 2.05877 118 2.42318 118 2.81221C118 3.20123 117.927 3.56564 117.781 3.90545C117.635 4.24526 117.433 4.54406 117.174 4.80184C116.915 5.05963 116.615 5.26117 116.274 5.40647C115.932 5.55176 115.566 5.62441 115.176 5.62441ZM115.176 5.10064C115.599 5.10064 115.984 4.99753 116.33 4.7913C116.678 4.58507 116.956 4.30971 117.163 3.96521C117.37 3.61837 117.474 3.23404 117.474 2.81221C117.474 2.39038 117.37 2.00721 117.163 1.66272C116.956 1.31588 116.678 1.03934 116.33 0.833116C115.984 0.626887 115.599 0.523773 115.176 0.523773C114.752 0.523773 114.366 0.626887 114.018 0.833116C113.672 1.03934 113.395 1.31588 113.188 1.66272C112.981 2.00721 112.877 2.39038 112.877 2.81221C112.877 3.23404 112.981 3.61837 113.188 3.96521C113.395 4.30971 113.672 4.58507 114.018 4.7913C114.366 4.99753 114.752 5.10064 115.176 5.10064Z" fill="white"/>
</svg>
